<svg xmlns="http://www.w3.org/2000/svg" width="308" height="120" viewBox="0 0 308 120">
    <g fill="none" fill-rule="evenodd">
        <path fill="#EAEDF1" d="M0 13h308v24H0zM0 62h308v24H0z"/>
        <path fill="#2ECC71" d="M285.45 9.019c1.103 0 2 .897 2 2s-.897 2-2 2-2-.897-2-2 .897-2 2-2m0-2a4 4 0 1 0 0 8 4 4 0 0 0 0-8M259.443 38.975c1.102 0 1.999.897 1.999 2s-.897 2-1.999 2c-1.104 0-2-.897-2-2s.896-2 2-2m0-2a4 4 0 1 0 0 8 4 4 0 0 0 0-8M233.495 51.969c1.104 0 2 .897 2 2s-.896 2-2 2c-1.103 0-2-.897-2-2s.897-2 2-2m0-2a4 4 0 1 0 0 8 4 4 0 0 0 0-8M206.508 29.037c1.102 0 2 .897 2 2s-.898 2-2 2c-1.104 0-2-.897-2-2s.896-2 2-2m0-2a4 4 0 1 0 0 8 4 4 0 0 0 0-8M155.492 23.003c1.102 0 2 .898 2 2.001 0 1.103-.898 2-2 2a2.001 2.001 0 0 1 0-4.001m0-2a4 4 0 1 0 0 8 4 4 0 0 0 0-8M130.46 69.003c1.103 0 2 .897 2 2s-.897 2-2 2-2-.897-2-2 .897-2 2-2m0-2a4 4 0 1 0 0 8 4 4 0 0 0 0-8M102.492 92.999a2.001 2.001 0 0 1 0 4.001c-1.103 0-2-.897-2-2s.897-2.001 2-2.001m0-2a4 4 0 1 0 0 8 4 4 0 0 0 0-8M75.483 73.003c1.103 0 2 .898 2 2.001 0 1.103-.897 2-2 2s-2-.897-2-2 .897-2.001 2-2.001m0-2a4 4 0 1 0 0 8 4 4 0 0 0 0-8M50.508 47.969c1.104 0 2 .897 2 2s-.896 2-2 2c-1.102 0-2-.897-2-2s.898-2 2-2m0-2a4 4 0 1 0 .002 8.002 4 4 0 0 0-.002-8.002M23.425 54.004c1.103 0 2 .897 2 2s-.897 2-2 2-2-.897-2-2 .897-2 2-2m0-2a4 4 0 1 0 0 8 4 4 0 0 0 0-8"/>
        <path fill="#2ECC71" d="M26.552 56.787l-.71-2.915L47.08 48.7l.71 2.915-21.238 5.172M72.566 74.08L51.091 52.581l2.122-2.12L74.688 71.96l-2.122 2.12M99.121 94.717L76.996 77.939l1.813-2.391 22.124 16.779-1.812 2.39M105.641 94.655l-1.966-2.266 23.888-20.722 1.966 2.267-23.888 20.721M133.418 68.915l-2.651-1.403 21.625-40.869 2.652 1.403-21.626 40.869M158.234 24.15l-1.924-2.302 20.999-17.546 1.923 2.301-20.998 17.547M203.885 30.168l-22.72-23.383 2.151-2.091 22.72 23.384-2.151 2.09M230.119 52.763l-22.154-18.789 1.94-2.289 22.154 18.79-1.94 2.288M236.595 53.53l-1.344-2.682 20.365-10.211 1.345 2.681-20.366 10.212M262.003 39.47l-2.248-1.987 22.844-25.832 2.247 1.988-22.843 25.831"/>
        <path fill="#2ECC71" d="M180.526 2c1.104 0 2 .897 2 2s-.896 2-2 2c-1.102 0-2-.897-2-2s.898-2 2-2m0-2a4 4 0 1 0 .002 8.002A4 4 0 0 0 180.526 0"/>
        <g fill="#9EA7B3" font-family="ProximaNova-Regular, Proxima Nova" font-size="11">
            <text transform="translate(17 109)">
                <tspan x="1.278" y="10.5">12</tspan>
            </text>
            <text transform="translate(17 109)">
                <tspan x="28.7" y="10">13</tspan>
            </text>
            <text transform="translate(17 109)">
                <tspan x="53.694" y="10">14</tspan>
            </text>
            <text transform="translate(17 109)">
                <tspan x="79.517" y="10">15</tspan>
            </text>
            <text transform="translate(17 109)">
                <tspan x="108.012" y="10">16</tspan>
            </text>
            <text transform="translate(17 109)">
                <tspan x="132.931" y="10">17</tspan>
            </text>
            <text opacity=".8" transform="translate(17 109)">
                <tspan x="158.563" y="10">18</tspan>
            </text>
            <text transform="translate(17 109)">
                <tspan x="183.512" y="10">19</tspan>
            </text>
            <text transform="translate(17 109)">
                <tspan x="210.027" y="10">20</tspan>
            </text>
            <text transform="translate(17 109)">
                <tspan x="237.528" y="10">21</tspan>
            </text>
            <text transform="translate(17 109)">
                <tspan x="262.158" y="10">22</tspan>
            </text>
        </g>
    </g>
</svg>
